<?xml version="1.0" encoding="utf-8"?>
<!-- Generator: Adobe Illustrator 25.4.1, SVG Export Plug-In . SVG Version: 6.00 Build 0)  -->
<svg version="1.1" id="Layer_1" xmlns="http://www.w3.org/2000/svg" xmlns:xlink="http://www.w3.org/1999/xlink" x="0px" y="0px"
	 viewBox="0 0 566.28 810.95" style="enable-background:new 0 0 566.28 810.95;" xml:space="preserve">
<path d="M56.01,440.48c-5.5-4.14-5.67-10.22-5.76-15.71c-0.09-6,2-12.02-0.37-18c-0.34-0.87-0.56-1.79-0.78-2.7
	c-0.99-4.01-3.07-8.13-2.68-12.01c0.6-6.06,0.65-11.57-1.52-17.47c-1.69-4.57-1.51-9.86-2.03-14.84c-0.59-5.71-1.19-11.43-1.5-17.16
	c-0.29-5.25-0.2-10.51-0.3-15.77c-0.05-2.48-0.12-4.96-0.22-7.43c-0.38-9.24-0.7-18.49-1.19-27.73c-0.2-3.8-1.21-7.59-1.1-11.36
	c0.42-13.92,1.05-27.83,1.81-41.73c0.44-7.95,0.85-15.93,2.03-23.79c2.27-15.09,4.17-30.33,7.89-45.09
	c5.29-21,13.16-41.05,25.57-59.21c8.66-12.67,18.24-24.48,29.77-34.41c9.36-8.05,19.24-16.03,30.12-21.68
	c15.56-8.08,31.34-16.18,48.63-20.44c9.43-2.33,18.7-5.38,28.21-7.3c9.01-1.82,18.23-2.58,27.36-3.85
	c5.12-0.72,10.22-2.09,15.35-2.19c17.65-0.35,35.47-2.82,52.88,1.37c11.43,2.75,22.64,6.63,33.67,10.76
	c10.91,4.09,21.61,8.83,32.14,13.84c9.09,4.32,17.64,9.76,26.75,14.03c6.21,2.91,9.23,9.31,14.85,12.38
	c8.31,4.53,14.96,10.85,20.82,17.92c8.57,10.33,20.33,16.38,30.68,24.32c15.28,11.72,31.26,22.67,45.56,35.48
	c10.71,9.59,19.68,21.47,21.96,36.52c1.6,10.54,1.2,21.05-1.85,31.52c-7.64,26.23-15.77,52.37-21.9,78.97
	c-4.72,20.5-6.98,41.6-9.78,62.5c-2.05,15.29-3.44,30.68-4.73,46.06c-1.98,23.49-3.53,47.01-5.43,70.5
	c-0.87,10.72-2.26,21.39-3.2,32.1c-0.86,9.88-1.39,19.79-2.15,29.68c-0.48,6.26-0.87,12.54-1.71,18.75
	c-2.91,21.38-5.21,42.89-9.21,64.08c-5.81,30.7-14.97,60.52-30.9,87.65c-12.25,20.86-43.3,39.6-81.13,63.99
	s-82.11,17.01-126.62,17.01s-89.21-41.56-94.69-50.44c-8.23-13.33-16.32-26.81-21.86-41.63c-3.65-9.77-8.01-19.27-11.79-29
	c-1.43-3.67-1.94-7.68-3.17-11.44c-4.39-13.4-9.32-26.63-13.28-40.16c-4.26-14.56-7.68-29.37-11.42-44.08
	c-2.3-9.03-4.68-18.05-6.69-27.15c-1.56-7.04-1.99-14.39-4.07-21.25c-1.87-6.19-2.93-12.12-3.07-18.66
	c-0.14-6.58-3.54-13.03-4.33-19.68c-0.97-8.14-3.12-15.83-5.2-23.7C54.54,455.88,56.01,448.01,56.01,440.48z"/>
</svg>
